<svg xmlns="http://www.w3.org/2000/svg" viewBox="0 0 800 1000" role="img" aria-labelledby="title desc">
  <title id="title">Profile image placeholder</title>
  <desc id="desc">A quiet abstract academic portrait placeholder with mathematical marks.</desc>
  <rect width="800" height="1000" fill="#f7faf7"/>
  <path d="M0 210 C180 140 270 220 420 150 C560 84 670 104 800 58 L800 0 L0 0 Z" fill="#e2eee7"/>
  <path d="M0 1000 L0 780 C160 724 282 804 426 746 C570 690 684 700 800 630 L800 1000 Z" fill="#e9efe9"/>
  <circle cx="400" cy="332" r="132" fill="#d5ded8"/>
  <path d="M205 778 C236 618 310 532 400 532 C490 532 564 618 595 778 Z" fill="#c7d4ce"/>
  <g fill="none" stroke="#0f6b56" stroke-width="10" stroke-linecap="round" opacity=".45">
    <path d="M154 197 q56 -70 112 0 t112 0"/>
    <path d="M498 260 h152"/>
    <path d="M574 184 v152"/>
    <path d="M188 862 h424"/>
  </g>
  <g fill="#9a6a16" font-family="Georgia, 'Times New Roman', serif" font-size="52" opacity=".7">
    <text x="122" y="124">Σ</text>
    <text x="632" y="840">λ</text>
    <text x="596" y="132">∫</text>
  </g>
</svg>
